<svg id="Layer_1" data-name="Layer 1" xmlns="http://www.w3.org/2000/svg" viewBox="0 0 792 196.52"><defs><style>.cls-1{opacity:0.5;}.cls-2,.cls-3{fill:#231f20;}.cls-3{fill-rule:evenodd;}</style></defs><title>logo-ctl</title><g class="cls-1"><path class="cls-2" d="M150.12,91.51c-6-5.34-7.44-12.34-7.44-18.18a24.57,24.57,0,0,1,6.88-16.77c3.69-3.68,9.28-6.57,18.74-6.57a51.76,51.76,0,0,1,8.9.74,52.83,52.83,0,0,0,6.27.92c.68.06.8.31.8.67s-.19,1.23-.31,3.45c-.12,2-.12,5.4-.18,6.32s-.19,1.29-.56,1.29-.49-.43-.49-1.29a8.49,8.49,0,0,0-2.58-6.26c-2.15-1.85-6.88-3.51-12.28-3.51-8.17,0-12,2.4-14.13,4.49-4.48,4.3-5.53,9.76-5.53,16,0,11.73,9,22.48,22.18,22.48,4.6,0,8.23-.55,10.69-3.07a11.77,11.77,0,0,0,2.27-5.16c.12-.67.24-.92.61-.92s.43.43.43.92A64.5,64.5,0,0,1,183,95c-.37,1.17-.49,1.29-1.6,1.78-2.45,1-7.12,1.42-11.05,1.42C161.17,98.15,155,95.88,150.12,91.51Z"/><path class="cls-2" d="M211,57.05c12.16,0,21.37,7.44,21.37,19.6,0,11.67-8.66,21.31-21.68,21.31-14.8,0-21.13-11.11-21.13-20.51C189.54,69,196.05,57.05,211,57.05Zm1.23,38.77c4.85,0,14.61-2.59,14.61-17.69,0-12.54-7.61-19.11-16.15-19.11-9,0-15.54,5.65-15.54,17C195.13,88.19,202.44,95.82,212.21,95.82Z"/><path class="cls-2" d="M247,82.24c0,7.68.12,10.81,1.1,11.73s3,1.23,7.19,1.23c2.83,0,5.22-.06,6.51-1.6a6.29,6.29,0,0,0,1.29-2.95c.06-.36.25-.67.55-.67s.37.24.37.8a33.11,33.11,0,0,1-.8,5.22c-.36,1.22-.55,1.41-3.44,1.41-3.86,0-6.88-.06-9.39-.19s-4.3-.12-5.9-.12c-.25,0-1.17,0-2.21.06s-2.27.13-3.13.13c-.56,0-.86-.13-.86-.43a.41.41,0,0,1,.42-.43,7.84,7.84,0,0,0,1.66-.25c1-.24,1.17-1.23,1.42-2.76a109.15,109.15,0,0,0,.3-11.3V72.9c0-8.1,0-9.58-.12-11.24s-.43-2.64-2.21-2.89a17.77,17.77,0,0,0-1.84-.12.51.51,0,0,1-.43-.43c0-.31.24-.43.86-.43,2.45,0,5.83.12,6.14.12s4.3-.12,6-.12c.55,0,.86.12.86.43s-.25.37-.43.37c-.37,0-1.17.06-1.78.12-1.6.31-1.91,1.11-2,2.95C247,63.32,247,64.8,247,72.9Z"/><path class="cls-2" d="M269.46,72.9c0-8.1,0-9.58-.12-11.24s-.43-2.64-2.21-2.89a17.79,17.79,0,0,0-1.85-.12.52.52,0,0,1-.43-.43c0-.31.25-.43.86-.43,2.46,0,5.72.12,6.21.12s3.87-.12,5.46-.12c.62,0,.93.12.93.43a.53.53,0,0,1-.5.43,6.51,6.51,0,0,0-1.35.12c-1.41.25-1.72,1.17-1.84,2.89s-.12,3.14-.12,11.24v7.31c0,7.56,1.66,10.69,4,12.78,2.64,2.39,5,2.83,8.05,2.83a11.1,11.1,0,0,0,8.35-3.69c2.52-3,3.07-7.31,3.07-12.66V72.9c0-8.1-.06-9.58-.12-11.24s-.37-2.64-2.15-2.89a17.77,17.77,0,0,0-1.84-.12.45.45,0,0,1-.43-.43c0-.31.24-.43.86-.43,2.39,0,5.53.12,5.83.12s2.95-.12,4.55-.12c.61,0,.86.12.86.43a.46.46,0,0,1-.43.43,6.41,6.41,0,0,0-1.35.12c-1.48.31-1.79,1.17-1.91,2.89s-.06,3.14-.06,11.24v5.59c0,5.65-.74,12-5,15.67a16.37,16.37,0,0,1-11.3,3.8c-1.78,0-7.43-.12-11.24-3.68-2.64-2.46-4.73-6.09-4.73-13.7Z"/><path class="cls-2" d="M354.8,90.53c.18,1.84.55,4.67,2.76,5.41a11.44,11.44,0,0,0,3.5.49c.25,0,.43.12.43.37s-.49.49-1.1.49c-1.23,0-7.25-.13-9.22-.31-1.29-.12-1.53-.31-1.53-.55A.44.44,0,0,1,350,96c.3-.06.37-.86.24-1.84l-2.58-26.42h-.12l-13,26.66c-1.11,2.27-1.41,2.76-1.91,2.76s-.79-.49-1.84-2.39c-1.41-2.58-5-9.28-6.33-12.1-1.59-3.32-5.95-12.1-6.87-14.25h-.25L315.24,92c-.06.8-.06,1.79-.06,2.65a1.45,1.45,0,0,0,1.29,1.47,8.59,8.59,0,0,0,2.09.31c.18,0,.43.18.43.37,0,.36-.37.49-1,.49-2,0-4.61-.19-5-.19s-3.07.19-4.55.19c-.55,0-.92-.13-.92-.49,0-.19.25-.37.55-.37a9.7,9.7,0,0,0,1.6-.19c1.78-.3,1.84-2.21,2.09-4.17L315.67,58c.06-.56.31-.93.62-.93a1.25,1.25,0,0,1,1.1.8l16.34,32.44,15.72-32.38c.25-.49.5-.86.86-.86s.68.43.8,1.42Z"/><path class="cls-2" d="M370.37,72.9c0-8.1,0-9.58-.12-11.24s-.43-2.76-2.21-3a17.79,17.79,0,0,0-1.85-.12c-.18,0-.43-.12-.43-.31s.25-.43.87-.43c2.45,0,5.95.12,6.26.12,1.29,0,3.81-.12,6.33-.12,9,0,11.36,5.22,11.36,8,0,4.11-2.7,6.69-5.47,9.15,4.12,1.23,9.52,5,9.52,10.87s-4.36,11.61-13.57,11.61c-1,0-2.95-.06-4.67-.19l-3.5-.12c-.12,0-1.11.06-2.21.06s-2.4.13-3.26.13c-.55,0-.86-.13-.86-.43s.13-.31.43-.31a13.58,13.58,0,0,0,1.66-.25c1.05-.18,1.17-1.35,1.41-2.88a105.64,105.64,0,0,0,.31-11.3ZM375,74c0,.37.12.49.37.55a16.7,16.7,0,0,0,3.32.25c3,0,4.17-.13,5.28-1.35a8.08,8.08,0,0,0,2.09-5.59c0-4-2.22-8.42-7.62-8.42a15.16,15.16,0,0,0-2.76.25c-.5.12-.68.24-.68.55Zm0,5.77c0,4,0,10.32.06,11.12.19,2.52.19,3.13,1.84,3.93a12.85,12.85,0,0,0,4.73.74c3.57,0,7.93-1.35,7.93-8A11.44,11.44,0,0,0,384.44,78c-1.85-1.17-3.56-1.11-4.86-1.35-.67-.12-3.37-.12-4.23-.12-.19,0-.31.12-.31.36Z"/><path class="cls-2" d="M409.32,82.12c0,5,0,9.15.24,11.3.19,1.53.37,2.52,2,2.76a23,23,0,0,0,2.46.25.41.41,0,0,1,.43.43c0,.24-.24.43-.86.43-3,0-6.51-.19-6.75-.19s-3.69.19-5.35.19c-.55,0-.86-.13-.86-.43a.41.41,0,0,1,.43-.43,7.94,7.94,0,0,0,1.66-.25c1.05-.24,1.23-1.23,1.41-2.76.25-2.15.31-6.27.31-11.3V72.9c0-8.1,0-9.58-.12-11.24s-.55-2.58-1.72-2.82a9.13,9.13,0,0,0-1.66-.19.45.45,0,0,1-.43-.43c0-.31.24-.43.86-.43,1.78,0,5.16.12,5.47.12s3.74-.12,5.4-.12c.62,0,.86.12.86.43a.51.51,0,0,1-.43.43,6.18,6.18,0,0,0-1.35.12c-1.47.31-1.78,1-1.9,2.89-.06,1.66-.06,3.14-.06,11.24Z"/><path class="cls-2" d="M437.27,58.84c.68-1.72.92-2,1.29-2,.55,0,.74.74,1.29,1.9,1,2.22,9.64,23.77,13,31.7,2,4.67,3.44,5.34,4.61,5.71a7.35,7.35,0,0,0,2.15.31c.3,0,.67.12.67.43s-.61.43-1.23.43c-.79,0-4.79,0-8.53-.13-1.05-.06-1.91-.06-1.91-.36s.13-.25.37-.37a1,1,0,0,0,.49-1.41l-4.85-12a.42.42,0,0,0-.49-.31H431.62a.56.56,0,0,0-.55.43L428,91.51A10.79,10.79,0,0,0,427.2,95c0,1,.92,1.41,1.84,1.41h.49c.43,0,.55.18.55.43s-.3.43-.8.43c-1.29,0-4.23-.19-4.85-.19s-3.25.19-5.46.19c-.68,0-1.05-.13-1.05-.43a.47.47,0,0,1,.49-.43,13.23,13.23,0,0,0,1.6-.13c2.46-.3,3.5-2.14,4.55-4.79Zm6,21.74c.24,0,.24-.12.18-.37L438.13,65.9c-.31-.8-.61-.8-.92,0l-5,14.31c-.06.25,0,.37.19.37Z"/><path class="cls-2" d="M474.42,108V46.59h3.32V108Z"/><path class="cls-2" d="M503.46,91.51c-6-5.34-7.44-12.34-7.44-18.18a24.57,24.57,0,0,1,6.88-16.77c3.69-3.68,9.28-6.57,18.74-6.57a51.84,51.84,0,0,1,8.9.74,52.83,52.83,0,0,0,6.27.92c.68.06.8.31.8.67s-.19,1.23-.31,3.45c-.12,2-.12,5.4-.18,6.32s-.19,1.29-.56,1.29-.49-.43-.49-1.29a8.49,8.49,0,0,0-2.58-6.26c-2.15-1.85-6.88-3.51-12.28-3.51-8.17,0-12,2.4-14.13,4.49-4.48,4.3-5.53,9.76-5.53,16,0,11.73,9,22.48,22.18,22.48,4.6,0,8.23-.55,10.69-3.07a11.89,11.89,0,0,0,2.27-5.16c.12-.67.24-.92.61-.92s.43.43.43.92A64.5,64.5,0,0,1,536.38,95c-.37,1.17-.49,1.29-1.6,1.78-2.45,1-7.12,1.42-11,1.42C514.51,98.15,508.31,95.88,503.46,91.51Z"/><path class="cls-2" d="M565.27,79.47c0,5.9,0,10.75.31,13.33.18,1.78.55,3.14,2.39,3.38a27.68,27.68,0,0,0,2.77.25c.36,0,.49.18.49.37s-.31.49-1,.49c-3.37,0-7.25-.19-7.55-.19s-4.18.19-6,.19c-.68,0-1-.13-1-.49,0-.19.13-.37.5-.37a9.69,9.69,0,0,0,1.84-.25c1.23-.24,1.53-1.6,1.78-3.38.31-2.58.31-7.43.31-13.33v-26l-9.09.13c-3.81.06-5.28.49-6.27,2a11,11,0,0,0-1,1.9c-.18.5-.37.62-.62.62s-.3-.19-.3-.55c0-.62,1.23-5.9,1.35-6.39s.37-1.17.61-1.17a11.34,11.34,0,0,0,2.71.74c1.78.18,4.11.31,4.85.31h23a25.05,25.05,0,0,0,4.37-.31c.91-.12,1.47-.31,1.71-.31s.31.37.31.74c0,1.84-.19,6.08-.19,6.75s-.18.8-.42.8-.43-.18-.5-1l-.06-.68c-.18-1.84-1.65-3.25-7.55-3.37l-7.74-.13Z"/><path class="cls-2" d="M598.58,79.6c0,9,.25,13,1.36,14.06s2.57,1.42,7.37,1.42c3.25,0,6-.06,7.43-1.85a8.57,8.57,0,0,0,1.6-3.68c0-.49.18-.8.55-.8s.37.24.37.92a39.49,39.49,0,0,1-.92,6.15c-.43,1.4-.62,1.65-3.88,1.65-4.42,0-7.61-.12-10.19-.18s-4.48-.19-6.26-.19c-.25,0-1.3.06-2.52.06s-2.58.13-3.51.13c-.67,0-1-.13-1-.49,0-.19.12-.37.49-.37a9.79,9.79,0,0,0,1.85-.25c1.23-.24,1.53-1.6,1.78-3.38.3-2.58.3-7.43.3-13.33V68.67c0-9.59,0-11.31-.12-13.27s-.61-3.08-2.64-3.51a11.78,11.78,0,0,0-2.09-.18c-.24,0-.49-.12-.49-.37s.31-.49,1-.49c2.76,0,6.63.19,6.94.19s4.79-.19,6.63-.19c.67,0,1,.12,1,.49s-.25.37-.49.37a14.58,14.58,0,0,0-2,.18c-1.79.31-2.28,1.36-2.4,3.51-.13,2-.13,3.68-.13,13.27Z"/><path class="cls-2" d="M146.68,125.52a20.12,20.12,0,0,1,12.6-4,36.27,36.27,0,0,1,8.25,1.11,3.29,3.29,0,0,0,1.31.19c0,1.08.28,4,.65,6.86a1,1,0,0,1-1.26.09c-.7-3.17-2.8-6.81-9.56-6.81-7.14,0-13.2,4.52-13.2,14.18s6.2,15.21,13.85,15.21a9.94,9.94,0,0,0,9.75-6.67,1,1,0,0,1,1.21.18,17.34,17.34,0,0,1-2.23,6.39,10,10,0,0,0-1.64.47,27.57,27.57,0,0,1-7.37,1.07,20.46,20.46,0,0,1-11.61-3.12,15,15,0,0,1-6.62-12.83A15.5,15.5,0,0,1,146.68,125.52Z"/><path class="cls-2" d="M177.78,141.15c-1.22,0-1.26.09-1.26,1.26,0,4.71,2.75,8.72,7.74,8.72a5,5,0,0,0,4.29-2.29.61.61,0,0,1,.84.56,8.16,8.16,0,0,1-7.32,4.34,8.36,8.36,0,0,1-6.76-3.08,9.9,9.9,0,0,1-2-6.06c0-5.74,3.77-10.54,9.37-10.54,4,0,6.63,2.75,6.63,5.55a2.93,2.93,0,0,1-.19,1.21c-.14.28-.79.33-2.75.33Zm2.89-1.4c3.45,0,4.48-.19,4.85-.47.14-.09.28-.28.28-.89,0-1.3-.89-2.93-3.59-2.93s-5.13,2.52-5.18,4c0,.1,0,.24.33.24Z"/><path class="cls-2" d="M194.36,139.7c0-1.82,0-2-1.26-2.89l-.42-.28a.63.63,0,0,1,0-.84,25.17,25.17,0,0,0,4.66-2.29.54.54,0,0,1,.51.33c-.09,1.07-.09,1.77-.09,2.19a.5.5,0,0,0,.51.52c2-1.22,4.15-2.38,6.53-2.38,3.87,0,5.46,2.65,5.46,5.78v8c0,3.36.09,3.83,1.77,4.06l1,.14a.82.82,0,0,1-.09,1.17c-1.4-.1-2.76-.14-4.39-.14s-3.08,0-4.34.14a.82.82,0,0,1-.09-1.17l.89-.14c1.72-.28,1.77-.7,1.77-4.06v-7c0-2.66-1.21-4.61-4.39-4.61a5.06,5.06,0,0,0-4,1.63,3.9,3.9,0,0,0-.7,2.8v7.13c0,3.36.09,3.78,1.77,4.06l.84.14a.81.81,0,0,1-.09,1.17c-1.26-.1-2.61-.14-4.25-.14s-3.08,0-4.38.14a.81.81,0,0,1-.09-1.17l1-.14c1.72-.23,1.77-.7,1.77-4.06Z"/><path class="cls-2" d="M221.4,136.67c-.8,0-.84.14-.84,1.12v8.72c0,2.71.32,5.18,3.4,5.18a3.53,3.53,0,0,0,1.26-.24c.42-.14,1-.65,1.17-.65.37,0,.56.51.47.79a6.46,6.46,0,0,1-4.9,2.15c-4,0-4.85-2.24-4.85-5V138c0-1.26-.05-1.35-1-1.35h-1.31a.77.77,0,0,1-.14-1,9.36,9.36,0,0,0,3-1.45,11.58,11.58,0,0,0,2-2.75c.24-.09.8-.09,1,.24v2.09c0,.84.05.89.84.89h5.18a1.49,1.49,0,0,1,0,2Z"/><path class="cls-2" d="M233,141.15c-1.21,0-1.26.09-1.26,1.26,0,4.71,2.75,8.72,7.75,8.72a5,5,0,0,0,4.29-2.29.62.62,0,0,1,.84.56,8.16,8.16,0,0,1-7.33,4.34,8.36,8.36,0,0,1-6.76-3.08,9.9,9.9,0,0,1-2-6.06c0-5.74,3.78-10.54,9.38-10.54,4,0,6.62,2.75,6.62,5.55a2.76,2.76,0,0,1-.19,1.21c-.14.28-.79.33-2.75.33Zm2.89-1.4c3.46,0,4.48-.19,4.85-.47.15-.09.28-.28.28-.89,0-1.3-.88-2.93-3.59-2.93s-5.13,2.52-5.17,4c0,.1,0,.24.32.24Z"/><path class="cls-2" d="M249.5,139.7c0-1.82,0-2-1.26-2.89l-.42-.28a.64.64,0,0,1,0-.84,35.62,35.62,0,0,0,4.72-2.29c.23,0,.37.14.37.33v2.71c0,.23.05.37.14.42,1.63-1.36,3.4-2.8,5.13-2.8a1.93,1.93,0,0,1,2.1,1.86,2.07,2.07,0,0,1-2,2.15,1.75,1.75,0,0,1-1-.33,3.79,3.79,0,0,0-2.06-.74,2,2,0,0,0-1.67.93,7,7,0,0,0-.61,3.59v6.34c0,3.36.09,3.92,1.86,4.06l1.68.14a.81.81,0,0,1-.09,1.17c-2.19-.1-3.54-.14-5.18-.14s-3.08,0-4.29.14a.81.81,0,0,1-.09-1.17l.88-.14c1.73-.28,1.78-.7,1.78-4.06Z"/><path class="cls-2" d="M280.75,136.67c-.79,0-.79.09-.79,1.35v9.84c0,3.36.09,3.92,1.77,4.06l1.68.14a.82.82,0,0,1-.09,1.17c-2.1-.1-3.45-.14-5.09-.14s-3.07,0-4.47.14a.82.82,0,0,1-.1-1.17l1.08-.14c1.72-.23,1.77-.7,1.77-4.06V138c0-1.26,0-1.35-.93-1.35h-1.64a.67.67,0,0,1-.14-.89l2-1a1,1,0,0,0,.7-.93,21.06,21.06,0,0,1,1.44-8.21c1.17-2.66,3.78-5.92,8.4-5.92,2.47,0,4.57,1.12,4.57,2.79a1.78,1.78,0,0,1-1.77,1.68,1.32,1.32,0,0,1-1.12-.56,5.23,5.23,0,0,0-3.73-2.05,3.59,3.59,0,0,0-3.31,2.57,24.71,24.71,0,0,0-1,7.88v1.35c0,1.26,0,1.31.79,1.31h5.32a1.44,1.44,0,0,1-.33,2Z"/><path class="cls-2" d="M306.29,143.71c0,5.83-4,10-9.84,10a9.23,9.23,0,0,1-9.57-9.61,9.8,9.8,0,0,1,9.94-10.07A9.32,9.32,0,0,1,306.29,143.71Zm-10-8.25c-3.08,0-5.36,2.93-5.36,8.07,0,4.24,1.91,8.81,6,8.81s5.37-4.29,5.37-7.88C302.28,140.49,300.69,135.46,296.26,135.46Z"/><path class="cls-2" d="M311.59,139.7c0-1.82,0-2-1.26-2.89l-.42-.28a.64.64,0,0,1,0-.84,34.94,34.94,0,0,0,4.71-2.29c.24,0,.38.14.38.33v2.71c0,.23,0,.37.14.42,1.63-1.36,3.4-2.8,5.13-2.8a1.93,1.93,0,0,1,2.1,1.86,2.07,2.07,0,0,1-2,2.15,1.75,1.75,0,0,1-1-.33,3.79,3.79,0,0,0-2.06-.74,2.07,2.07,0,0,0-1.68.93,7.15,7.15,0,0,0-.6,3.59v6.34c0,3.36.09,3.92,1.86,4.06l1.68.14a.81.81,0,0,1-.09,1.17c-2.19-.1-3.55-.14-5.18-.14s-3.08,0-4.29.14a.81.81,0,0,1-.09-1.17l.88-.14c1.73-.28,1.78-.7,1.78-4.06Z"/><path class="cls-2" d="M351.33,146.09c0,4.9.1,5.6,2.8,5.83l1.49.14c.28.19.19,1-.09,1.17-2.66-.1-4.25-.14-6.11-.14s-3.5,0-6.48.14a.81.81,0,0,1,0-1.17l1.68-.14c2.65-.23,2.89-.93,2.89-5.83V125.24c0-1.45,0-1.49-1.4-1.49h-2.57c-2,0-4.57.09-5.73,1.16a8.56,8.56,0,0,0-2.1,3.22.91.91,0,0,1-1.22-.32,49.4,49.4,0,0,0,1.78-7,1.12,1.12,0,0,1,.88,0c.28,1.49,1.82,1.44,4,1.44H360c2.52,0,2.94-.09,3.64-1.3.23-.1.74,0,.84.14a27.9,27.9,0,0,0-.7,7.09.89.89,0,0,1-1.22.09c-.14-1.17-.46-2.89-1.16-3.41-1.07-.79-2.85-1.16-5.41-1.16h-3.32c-1.4,0-1.35,0-1.35,1.58Z"/><path class="cls-2" d="M366.29,141.15c-1.21,0-1.26.09-1.26,1.26,0,4.71,2.75,8.72,7.74,8.72a5,5,0,0,0,4.29-2.29.63.63,0,0,1,.85.56,8.16,8.16,0,0,1-7.33,4.34,8.36,8.36,0,0,1-6.76-3.08,9.9,9.9,0,0,1-2-6.06c0-5.74,3.78-10.54,9.37-10.54,4,0,6.63,2.75,6.63,5.55a2.76,2.76,0,0,1-.19,1.21c-.14.28-.79.33-2.75.33Zm2.89-1.4c3.45,0,4.48-.19,4.85-.47.14-.09.28-.28.28-.89,0-1.3-.88-2.93-3.59-2.93s-5.13,2.52-5.18,4c0,.1,0,.24.33.24Z"/><path class="cls-2" d="M390,143.43c.7-.23.79-.65.79-1.35l.05-2.15c.05-1.72-.51-4.05-3.41-4.05-1.3,0-2.89.65-3,2.1-.05.74-.09,1.3-.47,1.58a5,5,0,0,1-2.66.89.59.59,0,0,1-.65-.66c0-2.42,5.27-5.73,8.68-5.73s5,2,4.85,5.45l-.28,8.12c-.1,2.14.32,4.06,2.14,4.06a2.68,2.68,0,0,0,1.17-.28c.23-.14.47-.33.61-.33s.32.28.32.61a4.9,4.9,0,0,1-3.92,2.05,3.73,3.73,0,0,1-3-1.45c-.18-.28-.46-.65-.74-.65a7.12,7.12,0,0,0-1.82.93,6.91,6.91,0,0,1-3.36,1.17,4.86,4.86,0,0,1-3.27-1.07,4.4,4.4,0,0,1-1.44-3.27c0-1.82.88-2.89,3.87-4Zm-2.89,8.21a5.29,5.29,0,0,0,2.84-1.16c.56-.56.56-1.22.61-2.2l.09-2.75c0-.51-.18-.61-.46-.61a8.91,8.91,0,0,0-1.92.47c-2.75.94-4.1,1.63-4.1,3.45A2.81,2.81,0,0,0,387.15,151.64Z"/><path class="cls-2" d="M414.86,134.85a2.65,2.65,0,0,1,.7,1.86c0,.85-.47,1.73-1,1.73a.81.81,0,0,1-.65-.32,6.37,6.37,0,0,0-4.67-2.48c-3.26,0-6.43,2.57-6.43,7.51,0,3.64,2.52,8,7.51,8a5.67,5.67,0,0,0,5.17-2.8.73.73,0,0,1,.84.65,8.49,8.49,0,0,1-7.78,4.76,9,9,0,0,1-6.4-2.38,9.29,9.29,0,0,1-2.7-6.9c0-5,3.54-10.4,11.29-10.4A11.63,11.63,0,0,1,414.86,134.85Z"/><path class="cls-2" d="M420.65,126.78c0-2.75,0-3-1.45-3.87l-.47-.28a.71.71,0,0,1,0-.93,34.44,34.44,0,0,0,5-2,.52.52,0,0,1,.47.28c-.05,1.39-.14,3.73-.14,5.78v9.79c0,.43,0,.8.18.89a10.64,10.64,0,0,1,6.3-2.42c4.43,0,6,2.75,6,6v7.79c0,3.36.09,3.88,1.77,4.06l1.26.14a.82.82,0,0,1-.09,1.17c-1.68-.1-3-.14-4.67-.14s-3.08,0-4.34.14a.83.83,0,0,1-.09-1.17l.93-.14c1.73-.28,1.78-.7,1.78-4.06v-6.67c0-3-1.45-5-4.44-5a5.57,5.57,0,0,0-3.63,1.26c-.84.7-1,.93-1,2.57v7.83c0,3.36.09,3.83,1.77,4.06l1,.14c.33.19.23,1-.09,1.17-1.4-.1-2.76-.14-4.39-.14s-3.08,0-4.57.14a.81.81,0,0,1-.09-1.17l1.16-.14c1.73-.18,1.78-.7,1.78-4.06Z"/><path class="cls-2" d="M445.5,139.7c0-1.82,0-2-1.26-2.89l-.42-.28a.64.64,0,0,1,0-.84,31.34,31.34,0,0,0,4.81-2.29.45.45,0,0,1,.47.28c-.1,1.64-.19,3.88-.19,5.79v8.39c0,3.36.09,3.83,1.77,4.06l1,.14a.82.82,0,0,1-.09,1.17c-1.4-.1-2.75-.14-4.39-.14s-3.08,0-4.38.14a.82.82,0,0,1-.1-1.17l1-.14c1.72-.23,1.77-.7,1.77-4.06Zm3.87-13.29a2.43,2.43,0,0,1-4.85.09A2.43,2.43,0,0,1,447,124,2.34,2.34,0,0,1,449.37,126.41Z"/><path class="cls-2" d="M457.68,139.7c0-1.82,0-2-1.26-2.89l-.42-.28a.64.64,0,0,1,0-.84,25,25,0,0,0,4.67-2.29.55.55,0,0,1,.51.33c-.09,1.07-.09,1.77-.09,2.19a.5.5,0,0,0,.51.52c2-1.22,4.15-2.38,6.53-2.38,3.87,0,5.46,2.65,5.46,5.78v8c0,3.36.09,3.83,1.77,4.06l1,.14a.82.82,0,0,1-.09,1.17c-1.4-.1-2.76-.14-4.39-.14s-3.08,0-4.34.14a.82.82,0,0,1-.09-1.17l.88-.14c1.73-.28,1.78-.7,1.78-4.06v-7c0-2.66-1.21-4.61-4.39-4.61a5.06,5.06,0,0,0-4,1.63,3.9,3.9,0,0,0-.7,2.8v7.13c0,3.36.09,3.78,1.77,4.06l.84.14a.81.81,0,0,1-.09,1.17c-1.26-.1-2.61-.14-4.25-.14s-3.07,0-4.38.14a.82.82,0,0,1-.1-1.17l1-.14c1.72-.23,1.77-.7,1.77-4.06Z"/><path class="cls-2" d="M498.35,135.74c.52.23.42,1.82-.28,1.91h-3.36a18.87,18.87,0,0,1,.1,2.38c0,3.21-1.91,7.41-7.84,7.41a20.21,20.21,0,0,1-2.05-.14c-.56.33-2.06,1.22-2.06,2.57,0,1.07,1.08,2,3.27,2,1.59,0,3.5-.14,5.55-.14,2.61,0,6.53.46,6.53,5.13,0,5.08-5.55,8.81-11.61,8.81-5.74,0-7.74-3.07-7.74-5.41a2.6,2.6,0,0,1,.51-1.72c.79-.84,2.1-2.06,3.17-3.13.42-.42.79-.84.37-1.12-1.82-.46-3.4-2.05-3.4-3.68,0-.24.18-.42.7-.8a14.29,14.29,0,0,0,2.47-2.14,1.84,1.84,0,0,0,.47-.89,6.31,6.31,0,0,1-3.5-5.64c0-4,3.45-7,7.6-7a11.59,11.59,0,0,1,4.48.93,5.61,5.61,0,0,0,2.84.75Zm-9.75,18.84c-1.49,0-3.35.09-4,.51a4.79,4.79,0,0,0-2.24,3.92c0,2.52,2,4.62,6.25,4.62s6.91-2.33,6.91-5c0-2.85-2-4.06-5.32-4.06Zm2.89-13.34c0-3.17-1.3-5.83-4.15-5.83-2.23,0-3.91,2.05-3.91,5.22s2,5.46,4.24,5.46C490.19,146.09,491.49,144.09,491.49,141.24Z"/><path class="cls-2" d="M521.07,143.43c.7-.23.8-.65.8-1.35l0-2.15c.05-1.72-.51-4.05-3.4-4.05-1.31,0-2.9.65-3,2.1,0,.74-.09,1.3-.47,1.58a5,5,0,0,1-2.66.89.6.6,0,0,1-.65-.66c0-2.42,5.28-5.73,8.68-5.73s5,2,4.85,5.45l-.28,8.12c-.1,2.14.33,4.06,2.14,4.06a2.68,2.68,0,0,0,1.17-.28c.23-.14.47-.33.61-.33s.32.28.32.61a4.89,4.89,0,0,1-3.91,2.05,3.74,3.74,0,0,1-3-1.45c-.18-.28-.46-.65-.74-.65a7.12,7.12,0,0,0-1.82.93,6.87,6.87,0,0,1-3.36,1.17,4.81,4.81,0,0,1-3.26-1.07,4.37,4.37,0,0,1-1.45-3.27c0-1.82.89-2.89,3.87-4Zm-2.89,8.21a5.29,5.29,0,0,0,2.84-1.16c.56-.56.56-1.22.61-2.2l.09-2.75c0-.51-.18-.61-.46-.61a8.86,8.86,0,0,0-1.91.47c-2.76.94-4.11,1.63-4.11,3.45A2.81,2.81,0,0,0,518.18,151.64Z"/><path class="cls-2" d="M534.34,139.7c0-1.82,0-2-1.26-2.89l-.42-.28a.64.64,0,0,1,0-.84,25,25,0,0,0,4.67-2.29.54.54,0,0,1,.51.33c-.09,1.07-.09,1.77-.09,2.19a.5.5,0,0,0,.51.52c2-1.22,4.16-2.38,6.53-2.38,3.87,0,5.46,2.65,5.46,5.78v8c0,3.36.09,3.83,1.77,4.06l1,.14a.82.82,0,0,1-.1,1.17c-1.39-.1-2.75-.14-4.38-.14s-3.08,0-4.34.14a.82.82,0,0,1-.09-1.17l.89-.14c1.72-.28,1.77-.7,1.77-4.06v-7c0-2.66-1.21-4.61-4.38-4.61a5.07,5.07,0,0,0-4,1.63,3.9,3.9,0,0,0-.7,2.8v7.13c0,3.36.09,3.78,1.77,4.06l.84.14a.82.82,0,0,1-.09,1.17c-1.26-.1-2.62-.14-4.25-.14s-3.08,0-4.38.14a.81.81,0,0,1-.09-1.17l1-.14c1.72-.23,1.77-.7,1.77-4.06Z"/><path class="cls-2" d="M573.24,146.28c0,3.68,0,5.41,1.35,5.41a7.77,7.77,0,0,0,2-.47c.33.09.38,1.26,0,1.49a34.54,34.54,0,0,0-6.16,1.5c-.28,0-.51-.14-.51-.38V153a4.9,4.9,0,0,0-.1-1.45h-.18a9.74,9.74,0,0,1-5.88,2.15c-5.18,0-8.63-4.06-8.63-9,0-6.54,4.94-10.73,11.28-10.73a9.47,9.47,0,0,1,3.13.42c.23,0,.28-.28.28-.66v-7c0-2.75,0-3-1.44-3.87l-.47-.28a.71.71,0,0,1,0-.93,34.44,34.44,0,0,0,5-2,.5.5,0,0,1,.46.28c0,1.39-.13,3.73-.13,5.78Zm-3.46-7a2.73,2.73,0,0,0-.51-1.82,4.87,4.87,0,0,0-3.92-2c-4.24,0-6.44,3.69-6.44,7.74,0,4.25,2.38,8.26,7,8.26a5.72,5.72,0,0,0,3.6-1.31,2.86,2.86,0,0,0,.32-1.72Z"/><path class="cls-2" d="M594.84,129.3c0-4.9-.1-5.65-3-5.88l-1.16-.09c-.28-.19-.19-1,.09-1.17,2.61.1,4.2.14,6.07.14s3.4,0,5.73-.14c.28.14.38,1,.09,1.17l-1.12.09c-2.75.23-2.84,1-2.84,5.88v16.23c0,2.94.14,4.15,1,5,.51.51,1.4,1.07,5.08,1.07,4,0,4.95-.19,5.7-.6.93-.56,2.14-2.24,3.07-4.62.28-.24,1.17,0,1.17.28a37.77,37.77,0,0,1-2,6.53c-2.38-.1-6.81-.14-11.61-.14H596.8c-2,0-3.46,0-6.07.14a.91.91,0,0,1-.09-1.17l1.4-.14c2.7-.28,2.8-.93,2.8-5.83Z"/><path class="cls-2" d="M621.64,141.15c-1.21,0-1.26.09-1.26,1.26,0,4.71,2.75,8.72,7.74,8.72a5,5,0,0,0,4.3-2.29.62.62,0,0,1,.84.56,8.16,8.16,0,0,1-7.33,4.34,8.36,8.36,0,0,1-6.76-3.08,9.9,9.9,0,0,1-2-6.06c0-5.74,3.78-10.54,9.38-10.54,4,0,6.62,2.75,6.62,5.55a2.76,2.76,0,0,1-.19,1.21c-.14.28-.79.33-2.75.33Zm2.9-1.4c3.45,0,4.47-.19,4.85-.47.14-.09.27-.28.27-.89,0-1.3-.88-2.93-3.59-2.93s-5.13,2.52-5.17,4c0,.1,0,.24.32.24Z"/><path class="cls-2" d="M645.39,143.43c.7-.23.8-.65.8-1.35l0-2.15c0-1.72-.51-4.05-3.4-4.05-1.31,0-2.9.65-3,2.1,0,.74-.09,1.3-.46,1.58a5,5,0,0,1-2.66.89.6.6,0,0,1-.66-.66c0-2.42,5.28-5.73,8.68-5.73s5,2,4.85,5.45l-.28,8.12c-.09,2.14.33,4.06,2.15,4.06a2.67,2.67,0,0,0,1.16-.28c.24-.14.47-.33.61-.33s.33.28.33.61a4.92,4.92,0,0,1-3.92,2.05,3.74,3.74,0,0,1-3-1.45c-.18-.28-.46-.65-.74-.65a7.12,7.12,0,0,0-1.82.93,6.87,6.87,0,0,1-3.36,1.17,4.81,4.81,0,0,1-3.26-1.07A4.37,4.37,0,0,1,636,149.4c0-1.82.89-2.89,3.87-4Zm-2.89,8.21a5.36,5.36,0,0,0,2.85-1.16c.56-.56.56-1.22.6-2.2l.09-2.75c0-.51-.18-.61-.46-.61a8.86,8.86,0,0,0-1.91.47c-2.75.94-4.11,1.63-4.11,3.45A2.81,2.81,0,0,0,642.5,151.64Z"/><path class="cls-2" d="M658.61,139.7c0-1.82,0-2-1.26-2.89l-.42-.28a.63.63,0,0,1,.05-.84,36.14,36.14,0,0,0,4.71-2.29c.23,0,.37.14.37.33v2.71c0,.23.05.37.14.42,1.63-1.36,3.41-2.8,5.13-2.8a1.93,1.93,0,0,1,2.1,1.86,2.07,2.07,0,0,1-2,2.15,1.78,1.78,0,0,1-1-.33,3.79,3.79,0,0,0-2-.74,2,2,0,0,0-1.68.93,7,7,0,0,0-.61,3.59v6.34c0,3.36.1,3.92,1.87,4.06l1.68.14a.82.82,0,0,1-.1,1.17c-2.19-.1-3.54-.14-5.17-.14s-3.08,0-4.29.14a.82.82,0,0,1-.1-1.17l.89-.14c1.72-.28,1.77-.7,1.77-4.06Z"/><path class="cls-2" d="M674.17,139.7c0-1.82,0-2-1.26-2.89l-.42-.28a.64.64,0,0,1,0-.84,25,25,0,0,0,4.67-2.29.58.58,0,0,1,.52.33,21.68,21.68,0,0,0-.1,2.19.5.5,0,0,0,.51.52c2-1.22,4.15-2.38,6.53-2.38,3.88,0,5.46,2.65,5.46,5.78v8c0,3.36.1,3.83,1.77,4.06l1,.14a.83.83,0,0,1-.09,1.17c-1.4-.1-2.76-.14-4.39-.14s-3.07,0-4.34.14a.83.83,0,0,1-.09-1.17l.89-.14c1.72-.28,1.77-.7,1.77-4.06v-7c0-2.66-1.21-4.61-4.39-4.61a5.06,5.06,0,0,0-4,1.63,4,4,0,0,0-.7,2.8v7.13c0,3.36.1,3.78,1.77,4.06l.84.14a.81.81,0,0,1-.09,1.17c-1.26-.1-2.61-.14-4.25-.14s-3.07,0-4.38.14a.82.82,0,0,1-.1-1.17l1-.14c1.72-.23,1.77-.7,1.77-4.06Z"/><path class="cls-2" d="M698.9,139.7c0-1.82,0-2-1.26-2.89l-.42-.28a.63.63,0,0,1,0-.84,31.7,31.7,0,0,0,4.8-2.29.45.45,0,0,1,.47.28c-.1,1.64-.19,3.88-.19,5.79v8.39c0,3.36.09,3.83,1.77,4.06l1,.14a.81.81,0,0,1-.09,1.17c-1.4-.1-2.75-.14-4.39-.14s-3.08,0-4.38.14a.81.81,0,0,1-.09-1.17l1-.14c1.72-.23,1.77-.7,1.77-4.06Zm3.87-13.29a2.43,2.43,0,0,1-4.85.09,2.43,2.43,0,0,1,2.52-2.52A2.33,2.33,0,0,1,702.77,126.41Z"/><path class="cls-2" d="M711.08,139.7c0-1.82,0-2-1.26-2.89l-.42-.28a.63.63,0,0,1,.05-.84,25.17,25.17,0,0,0,4.66-2.29.54.54,0,0,1,.51.33c-.09,1.07-.09,1.77-.09,2.19a.5.5,0,0,0,.51.52c2-1.22,4.16-2.38,6.53-2.38,3.87,0,5.46,2.65,5.46,5.78v8c0,3.36.09,3.83,1.77,4.06l1,.14a.82.82,0,0,1-.09,1.17c-1.4-.1-2.75-.14-4.39-.14s-3.08,0-4.34.14a.82.82,0,0,1-.09-1.17l.89-.14c1.72-.28,1.77-.7,1.77-4.06v-7c0-2.66-1.21-4.61-4.38-4.61a5.07,5.07,0,0,0-4,1.63,3.9,3.9,0,0,0-.7,2.8v7.13c0,3.36.09,3.78,1.77,4.06l.84.14a.82.82,0,0,1-.09,1.17c-1.26-.1-2.61-.14-4.25-.14s-3.08,0-4.38.14a.81.81,0,0,1-.09-1.17l1-.14c1.72-.23,1.77-.7,1.77-4.06Z"/><path class="cls-2" d="M751.75,135.74c.51.23.42,1.82-.28,1.91h-3.35a21,21,0,0,1,.09,2.38c0,3.21-1.92,7.41-7.84,7.41a20.21,20.21,0,0,1-2-.14c-.56.33-2.06,1.22-2.06,2.57,0,1.07,1.08,2,3.27,2,1.59,0,3.5-.14,5.55-.14,2.61,0,6.53.46,6.53,5.13,0,5.08-5.55,8.81-11.61,8.81-5.74,0-7.74-3.07-7.74-5.41a2.6,2.6,0,0,1,.51-1.72c.79-.84,2.1-2.06,3.17-3.13.42-.42.79-.84.37-1.12-1.81-.46-3.4-2.05-3.4-3.68,0-.24.18-.42.7-.8a14.29,14.29,0,0,0,2.47-2.14,1.84,1.84,0,0,0,.47-.89A6.32,6.32,0,0,1,733,141.1c0-4,3.46-7,7.61-7a11.63,11.63,0,0,1,4.48.93,5.61,5.61,0,0,0,2.84.75ZM742,154.58c-1.49,0-3.36.09-4,.51a4.79,4.79,0,0,0-2.24,3.92c0,2.52,2,4.62,6.25,4.62s6.91-2.33,6.91-5c0-2.85-2-4.06-5.32-4.06Zm2.9-13.34c0-3.17-1.31-5.83-4.16-5.83-2.24,0-3.92,2.05-3.92,5.22s2,5.46,4.25,5.46C743.59,146.09,744.9,144.09,744.9,141.24Z"/><rect class="cls-2" x="50.93" y="93.05" width="58.81" height="4.84"/><path class="cls-3" d="M117,53.11c-6.28-6.17-17.34-2.31-29.87,1.7a2.22,2.22,0,0,1-2.07-.49,11.46,11.46,0,0,0-1.69-1.18A6,6,0,0,0,81.27,42l2.21-2.85a.92.92,0,0,0,0-1l-2.75-3.55a.53.53,0,0,0-.4-.22.51.51,0,0,0-.4.22l-2.75,3.55a.92.92,0,0,0,0,1L79.39,42a6,6,0,0,0-2.13,11.12,12.09,12.09,0,0,0-1.7,1.18,2.2,2.2,0,0,1-2.07.49c-12.52-4-23.58-7.87-29.87-1.7-7.52,7.38,1.24,19.32,4,24.23,1.93,3.45,3.3,7.47,3.3,10.66h58.82c0-3.19,1.37-7.21,3.3-10.66C115.8,72.43,124.56,60.49,117,53.11ZM71.37,83.92c-2.28.15-4.15-2-4.88-4.83l1.87-4.37a1.07,1.07,0,0,0-.25-1.24L62.2,67.57c-.33-.34-.64-.35-.8,0l-2.8,5.9a1.12,1.12,0,0,0,.32,1.24l4.41,4.46c.93,3.5-1.45,4.78-2.79,4.78-4.69,0-8.43-6.37-12.26-13S43.2,59.76,46,56.19c4.74-6,17.16-1.25,26.82,3.15a10.5,10.5,0,0,0,1.09,4.9C79,75.59,75.6,83.63,71.37,83.92Zm41-12.94c-3.83,6.6-7.57,13-12.25,13-1.34,0-3.72-1.28-2.8-4.78l4.42-4.46a1.12,1.12,0,0,0,.32-1.24l-2.8-5.9c-.16-.35-.47-.34-.8,0l-5.91,5.91a1.07,1.07,0,0,0-.25,1.24l1.86,4.37c-.72,2.87-2.59,5-4.87,4.83-4.23-.29-7.67-8.33-2.58-19.68a10.4,10.4,0,0,0,1.1-4.9c9.65-4.4,22.08-9.13,26.81-3.15C117.46,59.76,116.14,64.5,112.37,71Z"/></g></svg>