<svg id="Layer_1_copy" data-name="Layer 1 copy" xmlns="http://www.w3.org/2000/svg" viewBox="0 0 792 196.52"><defs><style>.cls-1{opacity:0.5;}.cls-2{fill:#231f20;}</style></defs><title>logo-ps</title><g id="Page-1" class="cls-1"><g id="logo-ps-blue"><path id="Shape" class="cls-2" d="M204.37,58.39a58.15,58.15,0,0,1-2.65,7.47,45,45,0,0,1-8.8,1.23c-12.24,0-17.5-8.17-17.5-15.65,0-9.84,7.52-16.51,18.58-16.51a35.49,35.49,0,0,1,8.45,1.29c.37,2.6.71,4.73,1.05,7.51l-1.69.34c-1.42-5.39-4.78-7.19-8.94-7.19-7.23,0-11.16,6.52-11.16,13.61,0,8.7,4.83,14.56,11.53,14.56,4.31,0,7-2.55,9.46-7.28Z"/><path id="Shape-2" data-name="Shape" class="cls-2" d="M231.81,54.91c0,7.94-6,12.06-12.3,12.06-8.09,0-12.4-5.72-12.4-11.3a12,12,0,0,1,12.4-12.19C227,43.5,231.81,48.55,231.81,54.91Zm-18.74-.23c0,6.28,2.89,10.59,6.86,10.59,3.18,0,5.91-2.5,5.91-9.36,0-5.44-2.36-10.74-6.75-10.74-3.08,0-6,3.34-6,9.53Z"/><path id="Shape-3" data-name="Shape" class="cls-2" d="M254.79,59.81c-.28,1.69-1,5.34-1.28,6.57H234.56V64.86c3.21-.23,3.5-.47,3.5-3.73V49.31c0-3.26-.34-3.38-3.26-3.69V44.1h12.06v1.47c-3.21.24-3.5.43-3.5,3.74V61.37c0,1.69.24,2.46.81,2.83a7.48,7.48,0,0,0,3.38.48,4.79,4.79,0,0,0,3.88-1.32,11,11,0,0,0,1.84-3.78Z"/><path id="Shape-4" data-name="Shape" class="cls-2" d="M281.23,45.57c-2.13.11-3,.61-3.18,2a44.6,44.6,0,0,0-.27,5.66v2.6c0,3.68-.66,6.67-2.65,8.61a9.56,9.56,0,0,1-6.76,2.5,10.78,10.78,0,0,1-6.46-1.74c-2-1.47-3.18-4-3.18-8V49.31c0-3.26-.29-3.38-3.21-3.74V44.1h11.72v1.47c-2.94.29-3.17.48-3.17,3.74v6.75c0,5.54,2.07,8.23,5.77,8.23s5.87-3,5.87-8.56V53.36a41.52,41.52,0,0,0-.29-5.79c-.19-1.42-1.08-1.84-3.73-2V44.1h9.5Z"/><path id="Shape-5" data-name="Shape" class="cls-2" d="M313.34,45.62c-3.38.24-3.6.53-3.55,3.69l.29,12c0,3.12.18,3.37,3.38,3.54v1.52H301.63V64.86c3.08-.18,3.26-.42,3.38-3.59l.14-13.52H305l-7.94,18.31h-1.38l-7-18h-.13l-.43,8.61a48.36,48.36,0,0,0-.13,6c.1,1.69.84,2.08,3.26,2.23v1.52h-8.89V64.9c2-.1,2.79-.66,3.08-2.27a56,56,0,0,0,.66-5.77L286.7,50c.34-3.83,0-4.12-3.07-4.36V44.1h8.44l6.15,14,6.62-14h8.57Z"/><path id="Shape-6" data-name="Shape" class="cls-2" d="M331.75,54.14c3.73.42,6.38,2.13,6.38,5.54,0,5.3-6,6.75-11.72,6.75H316.28V64.91c3-.18,3.38-.42,3.38-3.68V49.41c0-3.38-.29-3.6-3.13-3.84V44.1h12.3c5.06,0,8,1.52,8,5.07,0,3.08-2.89,4.36-5.07,4.83Zm-5.15-.53c2.73,0,4.63-1,4.63-3.83a3.84,3.84,0,0,0-4.31-4c-1.89,0-2.13.57-2.13,2V53.6Zm-1.79,7.67c0,2.94,1.13,3.38,2.73,3.38a4.55,4.55,0,0,0,4.78-4.86c0-3.38-2.36-4.55-5.77-4.55h-1.69Z"/><path id="Shape-7" data-name="Shape" class="cls-2" d="M341.68,66.38V64.86c2.94-.18,3.26-.42,3.26-3.65V49.31c0-3.26-.34-3.38-3.26-3.69V44.1H353.5v1.52c-3,.19-3.26.38-3.26,3.69V61.13c0,3.26.29,3.5,3.26,3.68v1.52Z"/><path id="Shape-8" data-name="Shape" class="cls-2" d="M369.43,66.38V64.86l.85-.1c1.28-.23,1.69-.61,1-2.26l-1.13-2.94h-7.62c-.33.81-.65,1.79-1,3-.48,1.69,0,1.94,1.31,2.18l1.14.14v1.52H355V64.85c2.18-.29,3.13-.61,4.39-3.69l7.38-17.26,2.27-.42,7.68,18.36a3.87,3.87,0,0,0,4.07,3v1.52Zm-3-16.89h-.14l-3,8h6.05Z"/><path id="Shape-9" data-name="Shape" class="cls-2" d="M425.11,37.2c-2.71.13-3.84,1-4.08,2.78a50.62,50.62,0,0,0-.33,7v4.68c0,5.2-.81,9.22-3.5,12.06a12,12,0,0,1-8.65,3.38,13.14,13.14,0,0,1-8.09-2.37c-2.7-2.12-4-5.62-4-11.16V42.16c0-4.39-.42-4.63-4-5V35.64h13.51V37.2c-3.54.28-4,.57-4,5V52.62c0,7.28,2.71,11.48,8.1,11.48,6,0,8.44-4.78,8.44-12.66v-4.5a48.74,48.74,0,0,0-.42-7c-.29-1.69-1.32-2.5-4.6-2.7V35.64h11.64Z"/><path id="Shape-10" data-name="Shape" class="cls-2" d="M450.26,45.57c-2,.14-3.08.58-3.21,2a51.63,51.63,0,0,0-.29,6.09v13h-2.43L430.09,49.73h0v7a44.87,44.87,0,0,0,.29,6c.18,1.52,1.18,1.94,3.73,2.12v1.47h-9.46V64.91c2-.18,3-.6,3.17-2.12a41.83,41.83,0,0,0,.34-6V50.4c0-3.88-.84-4.59-4-4.83V44.1h7.76l12.76,14.53h.11v-5a47.49,47.49,0,0,0-.29-6c-.19-1.55-1.05-2-3.73-2.13V44.1h9.51Z"/><path id="Shape-11" data-name="Shape" class="cls-2" d="M452.25,66.38V64.86c2.94-.18,3.26-.42,3.26-3.65V49.31c0-3.26-.34-3.38-3.26-3.69V44.1h11.82v1.52c-3,.19-3.26.38-3.26,3.69V61.13c0,3.26.29,3.5,3.26,3.68v1.52Z"/><path id="Shape-12" data-name="Shape" class="cls-2" d="M492.06,45.62c-2.47.34-3.07.82-4.49,3.55-1.69,3.13-4.83,10.64-7.7,17.69h-1.76c-2.6-6.2-5.44-12.82-7.75-18.26a3.94,3.94,0,0,0-4.07-3V44.1h11.48v1.52l-1.18.19c-1.29.24-1.47.71-.81,2.37,1.32,3.17,3.17,7.66,5,12,1.42-3.26,4-9.79,4.6-11.72s.47-2.46-1.18-2.7l-1-.14V44.1H492Z"/><path id="Shape-13" data-name="Shape" class="cls-2" d="M514.91,60.29a60.19,60.19,0,0,1-1.28,6.09H494.19V64.86c3.21-.23,3.5-.47,3.5-3.83V49.36c0-3.38-.29-3.55-3.21-3.74V44.1h18.26c0,.95.18,3.38.37,5.58l-1.52.1A8.59,8.59,0,0,0,510.2,47c-.61-.76-1.52-1.08-3.88-1.08h-2c-1.32,0-1.37.1-1.37,1.37V53.8h3c2.71,0,3-.29,3.38-2.55h1.56v7.23h-1.56c-.37-2.23-.71-2.65-3.38-2.65h-3v5.06c0,2,.24,2.89.81,3.21a6.77,6.77,0,0,0,3.55.53,5,5,0,0,0,4.12-1.24,10.76,10.76,0,0,0,1.94-3.26Z"/><path id="Shape-14" data-name="Shape" class="cls-2" d="M541.48,66.74H540c-4.83,0-6.28-1.13-7.61-3.08a47.43,47.43,0,0,1-3.13-5.15A2.37,2.37,0,0,0,526.67,57H526v4.31c0,3.17.29,3.37,3.26,3.68v1.52H517.5V65c3-.19,3.38-.42,3.38-3.65V49.21c0-3.21-.29-3.38-3.18-3.65V44.1h12a11.48,11.48,0,0,1,6,1.14,5.06,5.06,0,0,1,2.5,4.61,6.2,6.2,0,0,1-4.73,5.72,53.38,53.38,0,0,0,3.38,5.16,24,24,0,0,0,2.65,3.37,5.66,5.66,0,0,0,2.32,1.32ZM527.35,55.29a5.77,5.77,0,0,0,3.37-.81,4.44,4.44,0,0,0,1.69-3.84,4.35,4.35,0,0,0-4.63-4.83c-1.52,0-1.89.42-1.89,1.69v7.75Z"/><path id="Shape-15" data-name="Shape" class="cls-2" d="M557.85,50.59c-.89-3-2.6-5.39-5.44-5.39A3.2,3.2,0,0,0,549,48.41c0,2.18,1.79,3.08,3.6,3.79l1.23.52c3.69,1.52,6.63,3.21,6.63,7,0,4.39-3.74,7.23-9.09,7.23a13.13,13.13,0,0,1-6.57-1.69,47.16,47.16,0,0,1-1.18-6.25l1.47-.37c.94,2.79,3.37,6.67,6.85,6.67A3.36,3.36,0,0,0,555.65,62c0-1.9-1.31-3-3.64-4l-1.47-.61c-2.71-1.13-6-3-6-6.76,0-4.2,3.13-7,8.7-7a14.59,14.59,0,0,1,5.34,1.13c.24,1.28.47,3,.81,5.57Z"/><path id="Shape-16" data-name="Shape" class="cls-2" d="M563.15,66.38V64.86c2.94-.18,3.26-.42,3.26-3.65V49.31c0-3.26-.33-3.38-3.26-3.69V44.1H575v1.52c-3,.19-3.26.38-3.26,3.69V61.13c0,3.26.29,3.5,3.26,3.68v1.52Z"/><path id="Shape-17" data-name="Shape" class="cls-2" d="M598.14,50.44a8.34,8.34,0,0,0-1.47-3.65c-.61-.71-1.69-.9-3.38-.9H591.4V61.1c0,3.37.33,3.59,3.68,3.83v1.52H582.6V64.93c3.21-.24,3.49-.42,3.49-3.83V45.89h-1.28c-2.5,0-3.38.34-3.92,1.09a8.46,8.46,0,0,0-1.42,3.37H578c.14-2.88.37-5.38.42-7.14h1.08c.58.76.95.84,2.08.84h14.71a1.86,1.86,0,0,0,1.9-.84h1.08c0,1.69.23,5.07.47,7.09Z"/><path id="Shape-18" data-name="Shape" class="cls-2" d="M625.62,45.62a4.85,4.85,0,0,0-4.5,2.71c-1,1.52-2.23,3.54-4,6.91a3.87,3.87,0,0,0-.57,2.07v3.92c0,3.08.34,3.38,3.68,3.65V66.4H607.58V64.88c3.38-.29,3.65-.52,3.65-3.6v-3.6a4,4,0,0,0-.71-2.41c-1.24-2.23-2.47-4.26-4.12-7-1.29-2.18-1.9-2.5-4-2.7V44.1h11v1.52l-1.32.24c-1.05.19-1.05.66-.52,1.69,1.31,2.42,2.73,4.83,3.92,7a74.71,74.71,0,0,0,3.37-6.67c.6-1.47.48-1.79-.71-2l-1.28-.18V44.1h8.65Z"/><path id="Shape-19" data-name="Shape" class="cls-2" d="M198.65,92.67c-2.06.23-2.47.5-4.19,3.37-2.06,3.28-6.52,11.15-10.24,17.91h-1.35c-1-6.32-2.56-14.43-3.27-18.14-.51-2.6-.88-2.84-2.91-3.08l.27-1h8.62l-.27,1-.78.1c-1.29.21-1.45.44-1.29,1.69.27,2.17,1.49,8.58,2.4,14h0c2.47-4.4,5.71-10.14,7.16-13.21.92-1.93.68-2.33-.94-2.5l-.78-.1.27-1h7.47Z"/><path id="Shape-20" data-name="Shape" class="cls-2" d="M209.54,110.15A9.8,9.8,0,0,1,204,114c-.75,0-1.42-.47-.85-3.38l.47-2.29h0a21.38,21.38,0,0,1-3.74,4,6.09,6.09,0,0,1-3.48,1.69c-1.15,0-2.23-1.35-2.23-4A12.25,12.25,0,0,1,198,101.2a11.64,11.64,0,0,1,6.92-2.84,10.14,10.14,0,0,1,2.13.23,8,8,0,0,0,1.69.24l.17.14c-.68,2.6-1.56,6.58-2.26,10.67-.21,1.08-.14,1.39,0,1.39a7.34,7.34,0,0,0,2.33-1.69Zm-5.49-4.56c.44-1.56,1-4.26,1.19-5.31a5.08,5.08,0,0,0-2.06-.47,2.86,2.86,0,0,0-1.79.57c-2.2,1.59-3.38,5.71-3.38,8.75,0,1.42.3,2,.77,2C200,111.23,203.28,107.28,204.05,105.59Z"/><path id="Shape-21" data-name="Shape" class="cls-2" d="M226.59,99.14a5.32,5.32,0,0,1-2.71,1.79l-.67.1a5,5,0,0,1,.23,1.69,6.35,6.35,0,0,1-2.43,4.86,11.85,11.85,0,0,1-4.71,2.06,1.19,1.19,0,0,0-.51.78c0,.44.75.94,2.37,1.79,3.48,1.69,4.83,3,4.83,4.59,0,2.94-5,5.17-8.55,5.17s-6.25-1.69-6.25-3.78c0-1.59,2.16-3,5.54-4.6a2.22,2.22,0,0,1-1.21-1.69c0-.67.67-1.35,2.39-2.29a3.76,3.76,0,0,1-3.36-4,6.93,6.93,0,0,1,2.91-5.54,8.5,8.5,0,0,1,4.69-1.69,4.86,4.86,0,0,1,3.11.94,8.58,8.58,0,0,0,4-.81Zm-6.91,19c0-.81-.68-1.52-2.16-2.39a26.38,26.38,0,0,0-2.88-1.52c-1.58.84-2.83,2.09-2.83,3.37,0,1.69,2,2.88,4.15,2.88S219.68,119.37,219.68,118.15Zm.4-15.77c0-1.69-.54-2.84-1.69-2.84s-1.68.91-2.26,1.93a9.2,9.2,0,0,0-1,4.18c0,1.59.64,2.57,1.69,2.57,1.5,0,3.26-2.26,3.26-5.84Z"/><path id="Shape-22" data-name="Shape" class="cls-2" d="M237.33,109.88c-3,3.17-5.57,4.09-7.67,4.09-1.82,0-4-1-4-5.07a11.13,11.13,0,0,1,4-8.58,9.59,9.59,0,0,1,5.22-2,2.95,2.95,0,0,1,3.38,2.84c0,3.38-5.44,5.07-8.79,6v1c0,1.69.61,3.38,2.47,3.38a8.11,8.11,0,0,0,4.87-2.53Zm-5.07-9.73c-.81.51-2.26,2.26-2.77,5.81,4.06-1.18,5.37-2.64,5.37-4.36,0-1.28-.81-1.82-1.42-1.82a2.12,2.12,0,0,0-1.14.37Z"/><path id="Shape-23" data-name="Shape" class="cls-2" d="M246.18,110.42a10.23,10.23,0,0,1-5.64,3.55c-.81,0-1.45-.75-.71-4.3q1.62-7.89,3.24-15.74c.34-1.69.2-1.92-1.25-2h-.94l.2-1a40.11,40.11,0,0,0,5.74-1.21c.41,0,.44.34.27,1.18-1.28,6.28-2.6,12.57-3.92,18.92-.2.94-.1,1.28.1,1.28a6.59,6.59,0,0,0,2.37-1.55Z"/><path id="Shape-24" data-name="Shape" class="cls-2" d="M248.17,108.53a10.15,10.15,0,0,1,5.07-9.06,9.46,9.46,0,0,1,4.16-1.18c3.14,0,4.83,2.06,4.83,5.34a10.79,10.79,0,0,1-3.62,8.17A8.93,8.93,0,0,1,253,114C249.29,114,248.17,111.16,248.17,108.53Zm7.1,3.81c1.48-.6,3.14-4.19,3.14-8.81,0-2.64-1-3.82-2.26-3.82a2.53,2.53,0,0,0-1,.2c-1,.47-3.18,3.38-3.18,8.72,0,2.57,1,3.88,2.33,3.88a2.42,2.42,0,0,0,1-.17Z"/><path id="Shape-25" data-name="Shape" class="cls-2" d="M263.27,111.33a2.14,2.14,0,0,1,1.08-1.69c.51-.3.82-.27,1,0a5.31,5.31,0,0,0,3.65,2.37,1.7,1.7,0,0,0,1.79-1.52c0-.75-.44-1.39-2.09-2.64s-3.25-2.36-3.25-4.32a4.42,4.42,0,0,1,2-3.58,7,7,0,0,1,4-1.69c1.69,0,2.94,1,2.94,2.09a2.08,2.08,0,0,1-1,1.69c-.41.27-.68.2-.88-.1a3.84,3.84,0,0,0-2.91-1.79,1.38,1.38,0,0,0-1.48,1.45c0,1,1.05,1.89,2.33,2.77,2,1.35,3.11,2.5,3.11,4.19,0,2.87-3.72,5.37-6.56,5.37C265.28,114,263.31,112.78,263.27,111.33Z"/><path id="Shape-26" data-name="Shape" class="cls-2" d="M303.1,107.78a39.51,39.51,0,0,1-2.73,5.44,23.93,23.93,0,0,1-5.88.85c-5.85,0-10.14-3.38-10.14-9.66,0-8.18,6.52-13.31,14.39-13.31a16.86,16.86,0,0,1,5.85,1c0,1.69-.2,3.65-.34,5.5l-1.11.11c-.48-4.09-2.23-5.27-5.07-5.27-5.17,0-9.26,5.44-9.26,11.82,0,5.07,2.3,8.45,6.08,8.45,2.87,0,4.94-2,7.23-5.41Z"/><path id="Shape-27" data-name="Shape" class="cls-2" d="M305.47,108.53a10.15,10.15,0,0,1,5.06-9.06,9.5,9.5,0,0,1,4.16-1.18c3.14,0,4.83,2.06,4.83,5.34A10.8,10.8,0,0,1,316,111.8a9,9,0,0,1-5.58,2.17C306.58,114,305.47,111.16,305.47,108.53Zm7.11,3.81c1.48-.6,3.14-4.19,3.14-8.81,0-2.64-1-3.82-2.26-3.82a2.53,2.53,0,0,0-1,.2c-1.05.47-3.18,3.38-3.18,8.72,0,2.57,1.05,3.88,2.33,3.88a2.54,2.54,0,0,0,.95-.17Z"/><path id="Shape-28" data-name="Shape" class="cls-2" d="M328.44,110.42A10.23,10.23,0,0,1,322.8,114c-.81,0-1.46-.75-.71-4.3q1.62-7.89,3.24-15.74c.34-1.69.2-1.92-1.25-2h-.95l.21-1a40.11,40.11,0,0,0,5.74-1.21c.41,0,.44.34.27,1.18-1.28,6.28-2.6,12.57-3.92,18.92-.2.94-.1,1.28.1,1.28a6.59,6.59,0,0,0,2.37-1.55Z"/><path id="Shape-29" data-name="Shape" class="cls-2" d="M337.22,110.42a10.2,10.2,0,0,1-5.64,3.55c-.81,0-1.45-.75-.71-4.3q1.62-7.89,3.24-15.74c.34-1.69.21-1.92-1.25-2h-.94l.2-1a40.11,40.11,0,0,0,5.74-1.21c.41,0,.44.34.27,1.18-1.28,6.28-2.6,12.57-3.91,18.92-.21.94-.11,1.28.1,1.28a6.55,6.55,0,0,0,2.36-1.55Z"/><path id="Shape-30" data-name="Shape" class="cls-2" d="M350.77,109.88c-3,3.17-5.58,4.09-7.67,4.09-1.82,0-4-1-4-5.07a11.13,11.13,0,0,1,4-8.58,9.54,9.54,0,0,1,5.2-2.06,2.93,2.93,0,0,1,3.38,2.83c0,3.38-5.44,5.07-8.78,6v1c0,1.69.61,3.38,2.46,3.38a8.13,8.13,0,0,0,4.87-2.54Zm-5.07-9.73c-.81.51-2.26,2.26-2.77,5.81,4.05-1.18,5.37-2.64,5.37-4.36,0-1.28-.81-1.82-1.42-1.82a2.18,2.18,0,0,0-1.15.37Z"/><path id="Shape-31" data-name="Shape" class="cls-2" d="M368.5,99.14a5.26,5.26,0,0,1-2.7,1.79l-.67.1a5,5,0,0,1,.23,1.69,6.35,6.35,0,0,1-2.43,4.86,11.82,11.82,0,0,1-4.75,2.06,1.15,1.15,0,0,0-.5.78c0,.44.74.94,2.36,1.79,3.48,1.69,4.83,3,4.83,4.59,0,2.94-5,5.17-8.54,5.17s-6.25-1.69-6.25-3.78c0-1.59,2.16-3,5.54-4.6a2.23,2.23,0,0,1-1.22-1.69c0-.67.68-1.35,2.4-2.29a3.75,3.75,0,0,1-3.33-4,6.9,6.9,0,0,1,2.91-5.54,8.47,8.47,0,0,1,4.69-1.69,4.87,4.87,0,0,1,3.11.94,8.61,8.61,0,0,0,4-.81Zm-6.94,19c0-.81-.67-1.52-2.16-2.39a27.18,27.18,0,0,0-2.87-1.52c-1.59.84-2.84,2.09-2.84,3.37,0,1.69,2,2.88,4.16,2.88S361.56,119.37,361.56,118.15Zm.41-15.77c0-1.69-.54-2.84-1.69-2.84s-1.69.91-2.27,1.93a9.47,9.47,0,0,0-1,4.18c0,1.59.64,2.57,1.69,2.57,1.54,0,3.29-2.26,3.29-5.84Z"/><path id="Shape-32" data-name="Shape" class="cls-2" d="M379.25,109.88c-3,3.17-5.58,4.09-7.67,4.09-1.83,0-4-1-4-5.07a11.13,11.13,0,0,1,4-8.58,9.55,9.55,0,0,1,5.18-2,2.95,2.95,0,0,1,3.38,2.84c0,3.38-5.44,5.07-8.78,6v1c0,1.69.61,3.38,2.46,3.38a8.11,8.11,0,0,0,4.87-2.53Zm-5.07-9.73c-.81.51-2.26,2.26-2.77,5.81,4-1.18,5.37-2.64,5.37-4.36,0-1.28-.81-1.82-1.42-1.82a2.15,2.15,0,0,0-1.15.37Z"/><path id="Shape-33" data-name="Shape" class="cls-2" d="M389,108.53a10.13,10.13,0,0,1,5.07-9.06,9.42,9.42,0,0,1,4.15-1.18c3.14,0,4.83,2.06,4.83,5.34a10.78,10.78,0,0,1-3.61,8.17,9,9,0,0,1-5.58,2.17C390.12,114,389,111.16,389,108.53Zm7.09,3.81c1.49-.6,3.15-4.19,3.15-8.81,0-2.64-1-3.82-2.27-3.82a2.56,2.56,0,0,0-1,.2c-1.05.47-3.17,3.38-3.17,8.72,0,2.57,1,3.88,2.33,3.88a2.34,2.34,0,0,0,.94-.17Z"/><path id="Shape-34" data-name="Shape" class="cls-2" d="M408.16,98.83a12.53,12.53,0,0,1,3-6.38,8.41,8.41,0,0,1,5.24-2.74c1.48,0,2.33.91,2.29,1.69a2.44,2.44,0,0,1-1.11,1.69.6.6,0,0,1-.88,0c-.84-1-1.59-1.56-2.26-1.56s-1.69.85-2.67,7.37h3.83l-.74,1.25-3.38.27c-.57,3.38-1,6-1.86,9.8-1.25,5.64-2.7,8-4.86,9.93A6.16,6.16,0,0,1,401,122c-1,0-2.23-.74-2.2-1.55a2.47,2.47,0,0,1,1.08-1.69c.27-.21.48-.24.71,0a4.24,4.24,0,0,0,2.47,1.08,1.34,1.34,0,0,0,1.22-.78c.27-.47.77-1.69,1.68-7.53.82-4.67,1.25-7.71,1.83-11h-2.74l-.13-.37L406.05,99Z"/><path id="Shape-35" data-name="Shape" class="cls-2" d="M433.16,91.62c4.43,0,7.64,1.55,7.64,5.78,0,4.56-3.85,7.09-8.21,7.39a5.24,5.24,0,0,1-1.12,0l-2.34-.62-1,5.07c-.54,2.77-.27,3,2.73,3.24l-.2,1h-9.8l.24-1c2.5-.24,2.74-.47,3.38-3.24l2.6-13.31c.54-2.77.34-3-2.23-3.28l.24-1.05Zm-3.78,11.32a5.59,5.59,0,0,0,7.36-5.85c0-2.77-1.48-4.22-3.78-4.22a2.73,2.73,0,0,0-1.35.27c-.34.2-.54.64-.75,1.69Z"/><path id="Shape-36" data-name="Shape" class="cls-2" d="M457,110.55a9.55,9.55,0,0,1-5.5,3.38c-.95,0-1.42-.91-.78-3.61l1.69-7.37c.37-1.45.17-2-.27-2-1.25,0-4.29,3-5.95,5.67-.4,1.69-1,4.87-1.32,6.62a24,24,0,0,0-3.37.71l-.21-.27c1.39-6.45,2.74-12.94,4.06-19.93.3-1.69,0-1.69-1.35-1.82h-.78l.2-1a37.1,37.1,0,0,0,5.71-1.18c.41,0,.47.27.27,1.18l-2.8,13.28h0a21,21,0,0,1,5.47-5.07,5.87,5.87,0,0,1,2.57-.84c.88,0,2.13.5,1.15,4.76l-1.49,6.62c-.24,1-.14,1.32.1,1.32a6.06,6.06,0,0,0,2.1-1.35Z"/><path id="Shape-37" data-name="Shape" class="cls-2" d="M466,110.65c1.69-2.5,4-6,3.95-8.44a4.32,4.32,0,0,0-.44-1.69,1.18,1.18,0,0,1,.1-1,1.94,1.94,0,0,1,1.69-1c.85,0,1.59.74,1.69,2.12a7.54,7.54,0,0,1-1.28,3.69c-1.52,2.6-3.82,6-5.71,8.68a90,90,0,0,1-6.25,8.17l-4.12,1-.27-.85a29.11,29.11,0,0,0,7.63-6.75,75,75,0,0,0-1.15-11.29c-.23-1.35-.47-1.69-.71-1.69s-.94.58-1.85,1.83l-.68-.88c1.32-2.1,3.18-4,4.56-4,1.12,0,1.69,1.21,2.13,4.32.34,2.7.54,5.07.71,8Z"/><path id="Shape-38" data-name="Shape" class="cls-2" d="M472.89,111.33a2.12,2.12,0,0,1,1.08-1.69c.51-.3.81-.27,1,0a5.31,5.31,0,0,0,3.65,2.37,1.7,1.7,0,0,0,1.79-1.52c0-.75-.44-1.39-2.1-2.64s-3.24-2.36-3.24-4.32a4.41,4.41,0,0,1,2-3.58,7,7,0,0,1,4-1.69c1.69,0,2.94,1,2.94,2.09A2.08,2.08,0,0,1,483,102c-.4.27-.67.2-.87-.1a3.86,3.86,0,0,0-2.91-1.79,1.39,1.39,0,0,0-1.49,1.45c0,1,1.05,1.89,2.34,2.77,2,1.35,3.1,2.5,3.1,4.19,0,2.87-3.71,5.37-6.55,5.37C474.85,114,472.92,112.78,472.89,111.33Z"/><path id="Shape-39" data-name="Shape" class="cls-2" d="M492.82,110.38a10.53,10.53,0,0,1-5.57,3.59c-.88,0-1.52-.65-.81-3.52l1.8-8c.17-.81.21-1.15,0-1.15a6.75,6.75,0,0,0-2.12,1.28l-.44-.87a11.83,11.83,0,0,1,5.77-3.38c.88,0,1,1.21.54,3.11l-2.06,8.27c-.2.91-.13,1.25.1,1.25a6.63,6.63,0,0,0,2.23-1.42Zm.61-16.89a2.34,2.34,0,0,1-2.3,2.37,1.73,1.73,0,0,1-1.26-.55,1.7,1.7,0,0,1-.43-1.31,2.31,2.31,0,0,1,2.18-2.35,1.74,1.74,0,0,1,1.33.5,1.71,1.71,0,0,1,.48,1.33Z"/><path id="Shape-40" data-name="Shape" class="cls-2" d="M506,110.15a10.12,10.12,0,0,1-7,3.88c-2.5,0-4-1.69-4-5.06a11.18,11.18,0,0,1,3.61-8.15,10,10,0,0,1,5.64-2.5c1.59,0,2.87.82,2.87,1.86a2.19,2.19,0,0,1-1.31,1.89.58.58,0,0,1-.92-.16c-.87-1.29-1.68-1.9-2.63-1.9s-1.52.68-2.09,1.83a13.92,13.92,0,0,0-1.36,6.21c0,2.44.85,3.52,2.23,3.52a7.73,7.73,0,0,0,4.33-2.3Z"/><path id="Shape-41" data-name="Shape" class="cls-2" d="M515.62,110.38a10.53,10.53,0,0,1-5.57,3.59c-.88,0-1.52-.65-.81-3.52l1.89-8c.17-.81.2-1.15,0-1.15a6.8,6.8,0,0,0-2.13,1.28l-.44-.87a11.9,11.9,0,0,1,5.78-3.38c.88,0,1,1.21.54,3.11l-2.06,8.34c-.2.91-.14,1.25.1,1.25a6.63,6.63,0,0,0,2.23-1.42Zm.61-16.89a2.34,2.34,0,0,1-2.3,2.37,1.7,1.7,0,0,1-1.25-.55,1.66,1.66,0,0,1-.43-1.31,2.31,2.31,0,0,1,2.26-2.33,1.68,1.68,0,0,1,1.72,1.81Z"/><path id="Shape-42" data-name="Shape" class="cls-2" d="M533.09,110.15a9.78,9.78,0,0,1-5.61,3.88c-.74,0-1.42-.47-.84-3.38l.47-2.29h0a21.77,21.77,0,0,1-3.75,4,6.09,6.09,0,0,1-3.48,1.69c-1.15,0-2.23-1.35-2.23-4a12.33,12.33,0,0,1,3.85-8.81,11.7,11.7,0,0,1,6.93-2.84,10.21,10.21,0,0,1,2.13.23,7.92,7.92,0,0,0,1.68.24l.17.14c-.67,2.6-1.55,6.58-2.26,10.67-.2,1.08-.14,1.39,0,1.39a7.23,7.23,0,0,0,2.33-1.69Zm-5.54-4.56c.44-1.56,1-4.26,1.18-5.31a5.08,5.08,0,0,0-2.06-.47,2.88,2.88,0,0,0-1.79.57c-2.2,1.59-3.38,5.71-3.38,8.75,0,1.42.31,2,.78,2C523.49,111.23,526.77,107.28,527.55,105.59Z"/><path id="Shape-43" data-name="Shape" class="cls-2" d="M550.52,110.49c-2.36,2.46-4.36,3.48-5.44,3.48s-1.49-.78-.84-3.59c.57-2.39,1.15-4.79,1.69-7.19.43-1.79.27-2.23-.17-2.23-1.25,0-4.63,3.75-6,6.15-.48,1.69-1,4-1.39,6.15A17.09,17.09,0,0,0,535,114l-.23-.31c.84-3.51,1.69-7.3,2.6-11.15.24-1,.2-1.31,0-1.31a5.55,5.55,0,0,0-2.16,1.41l-.48-.94a9.91,9.91,0,0,1,5.41-3.38c.88,0,1.22,1,.54,4.09l-.51,2.13h0a22.53,22.53,0,0,1,5.49-5.27,5.11,5.11,0,0,1,2.6-.95c1.05,0,2.06.57,1.05,5.07-.51,2.09-1,4.25-1.49,6.42-.2.84-.16,1.21.11,1.21a6.05,6.05,0,0,0,2.09-1.45Z"/><path id="Shape-44" data-name="Shape" class="cls-2" d="M551.91,111.33a2.09,2.09,0,0,1,1.08-1.69c.5-.3.81-.27,1,0a5.34,5.34,0,0,0,3.65,2.37,1.7,1.7,0,0,0,1.79-1.52c0-.75-.44-1.39-2.09-2.64s-3.26-2.26-3.26-4.29a4.43,4.43,0,0,1,2-3.58,7,7,0,0,1,4-1.69c1.69,0,2.94,1,2.94,2.09a2.08,2.08,0,0,1-1.05,1.69c-.4.27-.67.21-.88-.1a3.88,3.88,0,0,0-2.9-1.79,1.36,1.36,0,0,0-1.07.39,1.38,1.38,0,0,0-.42,1.06c0,1,1,1.9,2.33,2.78,2,1.35,3.11,2.49,3.11,4.18,0,2.88-3.71,5.38-6.55,5.38C553.86,114,551.94,112.78,551.91,111.33Z"/><path id="Shape-45" data-name="Shape" class="cls-2" d="M587.44,110.15a9.79,9.79,0,0,1-5.6,3.88c-.75,0-1.42-.47-.85-3.38l.47-2.29h0a21.45,21.45,0,0,1-3.69,4,6.09,6.09,0,0,1-3.48,1.69c-1.15,0-2.23-1.35-2.23-4a12.25,12.25,0,0,1,3.85-8.81,11.67,11.67,0,0,1,6.92-2.84,10.14,10.14,0,0,1,2.13.23,8,8,0,0,0,1.69.24l.17.14c-.68,2.6-1.56,6.58-2.26,10.67-.21,1.08-.14,1.39,0,1.39a7.34,7.34,0,0,0,2.33-1.69Zm-5.54-4.56c.44-1.56,1-4.26,1.19-5.31a5.08,5.08,0,0,0-2.06-.47,2.9,2.9,0,0,0-1.8.57c-2.19,1.59-3.37,5.71-3.37,8.75,0,1.42.3,2,.77,2C577.77,111.23,581.14,107.28,581.9,105.59Z"/><path id="Shape-46" data-name="Shape" class="cls-2" d="M604.79,110.49c-2.36,2.46-4.36,3.48-5.44,3.48s-1.48-.78-.84-3.59c.57-2.39,1.15-4.79,1.69-7.19.44-1.79.27-2.23-.17-2.23-1.25,0-4.63,3.75-6,6.15-.47,1.69-1,4-1.39,6.15a17.09,17.09,0,0,0-3.38.71l-.23-.31c.84-3.51,1.69-7.3,2.6-11.15.24-1,.2-1.31,0-1.31a5.55,5.55,0,0,0-2.16,1.41l-.48-.94a10,10,0,0,1,5.41-3.38c.88,0,1.22,1,.54,4.09l-.51,2.13h0a22.58,22.58,0,0,1,5.37-5.27,5.15,5.15,0,0,1,2.61-.95c1,0,2.06.57,1,5.07-.5,2.09-1,4.25-1.48,6.42-.21.84-.17,1.21.1,1.21a6,6,0,0,0,2.09-1.45Z"/><path id="Shape-47" data-name="Shape" class="cls-2" d="M622.68,110.32a9.34,9.34,0,0,1-5.51,3.71c-.81,0-1.42-.5-.84-3.21l.47-2.43h0a22.69,22.69,0,0,1-4.09,4.16,5.6,5.6,0,0,1-3.27,1.48c-1.36,0-2.5-1.42-2.5-4.19a11.17,11.17,0,0,1,10-11.48,5.07,5.07,0,0,1,1.89.27l1-5c.31-1.48.1-1.69-1.42-1.69h-.77l.17-1a48.31,48.31,0,0,0,5.84-1.18c.37,0,.44.27.24,1.08-1.52,6.59-2.77,12.67-3.92,18.92-.2.94-.17,1.28.1,1.28a5.52,5.52,0,0,0,2.23-1.55Zm-5.44-4.73,1-4.87a4,4,0,0,0-2.53-.94,2.52,2.52,0,0,0-1.69.54c-2.13,1.55-3.38,6-3.38,8.71,0,1.46.44,2.17,1,2.17C613.15,111.23,616.16,107.58,617.24,105.59Z"/><path id="Shape-48" data-name="Shape" class="cls-2" d="M633.05,106.6c.34,2.37,1.82,6.18,5.4,6.18a3.68,3.68,0,0,0,3.82-4,5.78,5.78,0,0,0-2.84-4.49l-1-.75c-1.89-1.52-3.92-3.37-3.92-6.18,0-3.82,3-6.31,7.16-6.31a10.38,10.38,0,0,1,3.62.64c.61.2,1.11.44,1.42.54-.14,1.35-.14,3.11-.17,5.06l-1.12.11c-.27-2.27-1.15-5.07-4-5.07a3.48,3.48,0,0,0-2.46,1.11A3.54,3.54,0,0,0,638,96c0,1.79,1.08,2.9,2.87,4.22l1,.74c2.33,1.69,4.15,3.52,4.15,6.42,0,4.16-3.61,6.76-7.87,6.76a9.15,9.15,0,0,1-6-2.1v-5.23Z"/><path id="Shape-49" data-name="Shape" class="cls-2" d="M664.16,110.32c-2.19,2.46-4.36,3.65-5.5,3.65s-1.36-1-.78-3.52c.17-.84.34-1.59.51-2.4h0a21.44,21.44,0,0,1-5.21,5.07,4.54,4.54,0,0,1-2.5.81c-1,0-2.19-.64-1.25-4.69.51-2.23,1.05-4.46,1.59-6.76.24-1,.24-1.39,0-1.39a9.45,9.45,0,0,0-2.16,1.49l-.41-1A11,11,0,0,1,654,98.26c.92,0,1.15.77.58,3.27s-1.12,5.07-1.69,7.44c-.37,1.58-.2,2.16.3,2.16,1.69,0,4.83-4.09,5.75-5.78.47-2,.94-4.09,1.38-6.18l3.24-.91h.36c-.88,3.48-1.69,7.12-2.53,11.25-.21,1.11-.17,1.41,0,1.41a6.06,6.06,0,0,0,2.26-1.55Z"/><path id="Shape-50" data-name="Shape" class="cls-2" d="M666.05,101.74c1.9-2,4.09-3.38,5.24-3.38s1.18,1.25.61,3.92l-.31,1.55h.14c1.69-3.11,3.38-5.47,4.9-5.47a1.85,1.85,0,0,1,1.55.88,1.68,1.68,0,0,1-.1,1.85,4.47,4.47,0,0,1-1.08,1.25.58.58,0,0,1-.81,0,2,2,0,0,0-1.29-.6c-.37,0-.77.2-1.48,1.18a16.94,16.94,0,0,0-2.1,3.88c-.44,2-.94,4.53-1.28,6.52a16.88,16.88,0,0,0-3.38.68l-.23-.3c.84-3.55,1.68-7.27,2.33-10.88.2-1.12.17-1.56,0-1.56a6,6,0,0,0-2.2,1.39Z"/><path id="Shape-51" data-name="Shape" class="cls-2" d="M694.31,99.14a5.3,5.3,0,0,1-2.7,1.79l-.68.1a4.81,4.81,0,0,1,.24,1.69,6.35,6.35,0,0,1-2.43,4.86,11.74,11.74,0,0,1-4.8,2.09,1.19,1.19,0,0,0-.51.78c0,.44.75,1,2.37,1.79,3.48,1.69,4.83,3,4.83,4.6,0,2.94-5,5.17-8.55,5.17s-6.25-1.69-6.25-3.79c0-1.59,2.17-3,5.54-4.59a2.25,2.25,0,0,1-1.21-1.69c0-.68.67-1.35,2.4-2.3a3.75,3.75,0,0,1-3.23-4,6.9,6.9,0,0,1,2.91-5.54,8.47,8.47,0,0,1,4.69-1.69,4.89,4.89,0,0,1,3.11.94,8.61,8.61,0,0,0,4-.81Zm-6.92,19c0-.81-.68-1.52-2.16-2.39a26.38,26.38,0,0,0-2.88-1.52c-1.58.84-2.83,2.09-2.83,3.37,0,1.69,2,2.88,4.15,2.88s3.77-1.12,3.77-2.34Zm.4-15.77c0-1.69-.54-2.84-1.69-2.84s-1.69.91-2.26,1.93a9.2,9.2,0,0,0-1,4.18c0,1.59.64,2.57,1.69,2.57,1.57,0,3.32-2.26,3.32-5.84Z"/><path id="Shape-52" data-name="Shape" class="cls-2" d="M705.11,109.88c-3,3.17-5.58,4.09-7.67,4.09-1.83,0-4-1-4-5.07a11.13,11.13,0,0,1,4-8.58,9.54,9.54,0,0,1,5.2-2.06,2.93,2.93,0,0,1,3.38,2.83c0,3.38-5.44,5.07-8.79,6v1c0,1.69.61,3.38,2.47,3.38a8.24,8.24,0,0,0,4.75-2.5ZM700,100.15c-.81.51-2.26,2.26-2.77,5.81,4.05-1.18,5.37-2.64,5.37-4.36,0-1.28-.81-1.82-1.42-1.82a2.15,2.15,0,0,0-1.15.37Z"/><path id="Shape-53" data-name="Shape" class="cls-2" d="M707.3,108.53a10.15,10.15,0,0,1,5.07-9.06,9.46,9.46,0,0,1,4.15-1.18c3.15,0,4.83,2.06,4.83,5.34a10.75,10.75,0,0,1-3.61,8.17,8.93,8.93,0,0,1-5.57,2.17C708.42,114,707.3,111.16,707.3,108.53Zm7.1,3.81c1.48-.6,3.14-4.19,3.14-8.81,0-2.64-1-3.82-2.27-3.82a2.56,2.56,0,0,0-1,.2c-1,.47-3.17,3.38-3.17,8.72,0,2.57,1,3.88,2.33,3.88a2.61,2.61,0,0,0,.95-.17Z"/><path id="Shape-54" data-name="Shape" class="cls-2" d="M739.36,110.49C737,113,735,114,733.92,114s-1.48-.78-.84-3.59c.57-2.39,1.15-4.79,1.69-7.19.44-1.79.27-2.23-.17-2.23-1.25,0-4.63,3.75-6,6.15-.48,1.69-1,4-1.39,6.15a17.09,17.09,0,0,0-3.38.71l-.23-.31c.84-3.51,1.69-7.3,2.6-11.15.24-1,.2-1.31,0-1.31a5.55,5.55,0,0,0-2.16,1.41l-.48-.94A10,10,0,0,1,729,98.29c.88,0,1.22,1,.54,4.09l-.51,2.13h0a22.58,22.58,0,0,1,5.37-5.27,5.15,5.15,0,0,1,2.61-.95c1,0,2.06.57,1,5.07-.5,2.09-1,4.25-1.48,6.42-.21.84-.17,1.21.1,1.21a6,6,0,0,0,2.09-1.45Z"/><path id="Shape-55" data-name="Shape" class="cls-2" d="M740.75,111.33a2.09,2.09,0,0,1,1.08-1.69c.5-.3.81-.27,1,0a5.34,5.34,0,0,0,3.65,2.37,1.7,1.7,0,0,0,1.79-1.52c0-.75-.44-1.39-2.09-2.64s-3.24-2.36-3.24-4.32a4.42,4.42,0,0,1,2-3.55,7,7,0,0,1,4-1.69c1.68,0,2.93,1,2.93,2.09a2.07,2.07,0,0,1-1,1.69c-.41.27-.68.21-.88-.1a3.9,3.9,0,0,0-2.91-1.79,1.39,1.39,0,0,0-1.07.39,1.41,1.41,0,0,0-.41,1.06c0,1,1,1.9,2.33,2.78,2,1.35,3.11,2.49,3.11,4.18,0,2.88-3.72,5.38-6.56,5.38C742.7,114,740.78,112.78,740.75,111.33Z"/><rect id="Rectangle-path" class="cls-2" x="53.76" y="108.15" width="75.08" height="6.18"/><path id="Shape-56" data-name="Shape" class="cls-2" d="M138.16,58.29c-8-7.89-22.14-2.95-38.12,2.15a2.82,2.82,0,0,1-2.65-.63,17.12,17.12,0,0,0-2.16-1.52,7.68,7.68,0,0,0-2.72-14.2l2.82-3.65a1.14,1.14,0,0,0,0-1.32l-3.52-4.47a.6.6,0,0,0-1,0l-3.51,4.51a1.13,1.13,0,0,0,0,1.31l2.82,3.65a7.68,7.68,0,0,0-2.72,14.17,15.47,15.47,0,0,0-2.16,1.51,2.83,2.83,0,0,1-2.64.62c-16-5.08-30.13-10-38.14-2.13C34.84,67.72,46,83,49.52,89.24a30.16,30.16,0,0,1,4.22,13.51h75.12a30.21,30.21,0,0,1,4.2-13.51C136.59,82.94,147.79,67.68,138.16,58.29ZM79.87,97.6c-2.9.2-5.3-2.48-6.21-6.17l2.45-5.57a1.4,1.4,0,0,0-.33-1.59l-7.61-7.55c-.43-.42-.83-.44-1,0l-3.57,7.53A1.41,1.41,0,0,0,64,85.83l5.62,5.69C70.78,96,67.74,97.61,66,97.61c-6,0-10.76-8.12-15.64-16.53s-6.49-14.34-2.85-18.89c6-7.63,22-1.6,34.23,4a13.24,13.24,0,0,0,1.39,6.25C89.62,87,85.26,97.24,79.87,97.6Zm52.36-16.5c-4.88,8.44-9.66,16.53-15.64,16.53-1.69,0-4.74-1.69-3.58-6.1l5.64-5.69a1.4,1.4,0,0,0,.41-1.57l-3.57-7.53c-.2-.44-.59-.42-1,0l-7.55,7.55a1.41,1.41,0,0,0-.32,1.59L109,91.45c-.93,3.68-3.38,6.37-6.24,6.16C97.34,97.26,93,87,99.47,72.48a13.38,13.38,0,0,0,1.38-6.25c12.33-5.62,28.19-11.65,34.24-4,3.63,4.53,1.94,10.61-2.87,18.89Z"/></g></g></svg>